<svg width="16" height="16" viewBox="0 0 16 16" fill="none" xmlns="http://www.w3.org/2000/svg">
<circle cx="8" cy="8" r="8" fill="#FDA7C6"/>
<path d="M12.9735 6.58951C12.9421 6.49694 12.8842 6.4156 12.8071 6.35554C12.73 6.29547 12.637 6.25931 12.5395 6.25151L9.68901 6.02501L8.45551 3.29451C8.41623 3.20656 8.35233 3.13187 8.27154 3.07944C8.19074 3.027 8.09649 2.99908 8.00017 2.99902C7.90386 2.99897 7.80958 3.02679 7.72873 3.07914C7.64787 3.13148 7.58389 3.20611 7.54451 3.29401L6.31101 6.02501L3.46051 6.25151C3.36474 6.25909 3.27318 6.29411 3.19679 6.35237C3.1204 6.41063 3.06241 6.48967 3.02976 6.58002C2.99711 6.67038 2.99118 6.76822 3.01269 6.86186C3.03419 6.95549 3.08221 7.04095 3.15101 7.10801L5.25751 9.16151L4.51251 12.3875C4.48989 12.4852 4.49714 12.5874 4.53332 12.6808C4.5695 12.7743 4.63294 12.8548 4.71541 12.9117C4.79788 12.9687 4.89557 12.9996 4.9958 13.0003C5.09604 13.0011 5.19419 12.9717 5.27751 12.916L8.00001 11.101L10.7225 12.916C10.8077 12.9726 10.9081 13.0017 11.0103 12.9994C11.1125 12.9972 11.2116 12.9637 11.2942 12.9035C11.3768 12.8432 11.439 12.7592 11.4724 12.6625C11.5058 12.5659 11.5088 12.4614 11.481 12.363L10.5665 9.16301L12.8345 7.12201C12.983 6.98801 13.0375 6.77901 12.9735 6.58951Z" fill="white"/>
</svg>
